<?xml version="1.0" encoding="utf-8"?>
<!-- Generator: Adobe Illustrator 24.1.0, SVG Export Plug-In . SVG Version: 6.00 Build 0)  -->
<svg version="1.1" id="Layer_1" xmlns="http://www.w3.org/2000/svg" xmlns:xlink="http://www.w3.org/1999/xlink" x="0px" y="0px"
	 viewBox="0 0 512 512" style="enable-background:new 0 0 512 512;" xml:space="preserve">
<style type="text/css">
	.st0{opacity:0.53;fill:none;stroke:#FFFFFF;stroke-width:24;stroke-miterlimit:10;enable-background:new    ;}
	.st1{fill:#F7F7F7;}
</style>
<g id="Layer_2_1_">
	<circle class="st0" cx="211.4" cy="262" r="161.2"/>
</g>
<g id="Layer">
	<path class="st1" d="M241,197.7c4.2-4,10.8-3.8,14.7,0.4c4,4.2,3.8,10.8-0.4,14.7l-45.9,38.8h235.2c5.8,0,10.4,4.7,10.4,10.4
		s-4.7,10.4-10.4,10.4H209.7l46.6,36.8c4.2,4,4.3,10.6,0.4,14.7c-2,2.1-4.8,3.2-7.5,3.2c-2.6,0-5.2-1-7.2-2.9l-57.9-47.6
		c-3.9-3.9-6.1-9.2-6.1-14.7c0-5.6,2.2-10.8,6.3-14.9L241,197.7z"/>
</g>
</svg>
