<?xml version="1.0" encoding="utf-8"?>
<!-- Generator: Adobe Illustrator 24.1.0, SVG Export Plug-In . SVG Version: 6.00 Build 0)  -->
<svg version="1.1" id="Layer_1" xmlns="http://www.w3.org/2000/svg" xmlns:xlink="http://www.w3.org/1999/xlink" x="0px" y="0px"
	 viewBox="0 0 500 500" style="enable-background:new 0 0 500 500;" xml:space="preserve">
<style type="text/css">
	.st0{fill:#1EA1DB;}
	.st1{fill:#FFFFFF;stroke:#FFFFFF;stroke-miterlimit:10;}
	.st2{fill:#FFFFFF;stroke:#FFFFFF;stroke-width:2;stroke-miterlimit:10;}
	.st3{fill:#FFFFFF;stroke:#FFFFFF;stroke-width:0.5;stroke-miterlimit:10;}
	.st4{fill:#392A6A;}
	.st5{fill:#FFFFFF;}
</style>
<g>
	<g>
		<path class="st0" d="M480.8,281.5c-17,36-63.5,43.2-63.5,43.2h-353c0,0-62.2-12.4-56.3-72.7c5.9-60.2,71.3-64.2,71.3-64.2
			c19.6-93.6,104.1-68.1,104.1-68.1s14.6-44.2,57.6-56.8v60.5c-1.7,1.1-2.9,3-2.9,5.1c0,3.3,2.7,6.1,6.1,6.1c3.3,0,6.1-2.7,6.1-6.1
			c0-2.2-1.1-4.1-2.9-5.1V61.4c10.1-2.1,19.4-3,28-3v45c-1.7,1.1-2.9,3-2.9,5.1c0,3.3,2.7,6.1,6.1,6.1c3.4,0,6.1-2.7,6.1-6.1
			c0-2.2-1.1-4.1-2.9-5.1V58.6c11,0.6,20.8,2.8,29.4,6c0.1,0,0.2,0.1,0.4,0.1h-0.5v59.5c-1.7,1.1-2.8,3-2.8,5.1
			c0,3.3,2.7,6.1,6.1,6.1c3.3,0,6.1-2.7,6.1-6.1c0-2.2-1.2-4.1-2.9-5.1v-57c35.9,16.2,49.4,49.3,49.4,49.3
			c31.4-15.7,56.3,3.9,56.3,3.9c21,13.1,21.6,45.2,21.6,45.2c4,1.7,8.5,4,13.1,7.2c11.3,7.8,17.5,17.4,21.9,24.1
			c2.8,4.3,5.3,8.2,7.6,13.8C500,249.6,485.1,272.5,480.8,281.5z"/>
		<g>
			<path class="st1" d="M78.5,204.5c1.8-1.6,3.8-2.4,6.2-2.4c2.5,0,4.6,0.8,6.3,2.4c1.8,1.6,2.6,3.5,2.6,5.8c0,2.3-0.9,4.2-2.6,5.8
				c-1.8,1.6-3.9,2.4-6.3,2.4c-2.4,0-4.4-0.8-6.2-2.4c-1.8-1.6-2.6-3.5-2.6-5.8C75.8,208,76.7,206.1,78.5,204.5z M93.6,283.5
				c0,2.3-0.9,4.2-2.6,5.8c-1.8,1.6-3.9,2.4-6.3,2.4c-2.5,0-4.5-0.8-6.3-2.4c-1.7-1.6-2.6-3.5-2.6-5.7v-47.8c0-2.3,0.9-4.2,2.6-5.8
				c1.8-1.6,3.8-2.4,6.2-2.4c2.5,0,4.6,0.8,6.3,2.4c1.8,1.6,2.6,3.6,2.6,5.8V283.5z"/>
			<path class="st1" d="M125,227.8v55.7c0,2.2-0.9,4.1-2.6,5.7c-1.8,1.6-3.9,2.4-6.3,2.4c-2.4,0-4.4-0.8-6.2-2.4
				c-1.8-1.6-2.6-3.5-2.6-5.7v-71.7c0-2.6,1-4.9,3.1-6.8c2-1.9,4.5-2.8,7.5-2.8c2.9,0,5.3,0.7,7.4,2c2.1,1.3,3.9,3.2,5.5,5.6
				L167,266v-55.7c0-2.3,0.9-4.2,2.6-5.8c1.8-1.6,3.8-2.4,6.2-2.4c2.5,0,4.6,0.8,6.3,2.4c1.8,1.6,2.6,3.5,2.6,5.8v71.6
				c0,1.4-0.3,2.6-0.9,3.8c-0.6,1.2-1.3,2.2-2.3,3.1c-0.9,0.9-2,1.6-3.3,2.1c-1.3,0.5-2.6,0.7-4.1,0.7c-2.9,0-5.3-0.7-7.4-2
				c-2.1-1.4-3.9-3.2-5.5-5.6L125,227.8z"/>
			<path class="st2" d="M214,290.4c-4-1.6-7.4-3.8-10.2-6.7c-2.8-2.9-4.9-6.4-6.4-10.6c-1.5-4.1-2.2-8.7-2.2-13.8
				c0-5.1,0.7-9.7,2.2-13.8s3.6-7.6,6.4-10.6c2.8-2.9,6.2-5.2,10.2-6.7c4-1.6,8.5-2.3,13.6-2.3c5,0,9.5,0.8,13.5,2.3
				c4,1.6,7.4,3.8,10.2,6.7c2.8,2.9,5,6.4,6.4,10.6c1.5,4.1,2.2,8.7,2.2,13.8c0,5.1-0.7,9.7-2.2,13.8c-1.5,4.1-3.6,7.6-6.4,10.6
				c-2.8,2.9-6.2,5.2-10.2,6.7c-4,1.6-8.5,2.3-13.5,2.3C222.5,292.7,218,291.9,214,290.4z M240.4,242.9c-3-3.4-7.3-5.1-12.8-5.1
				c-5.6,0-9.9,1.7-12.9,5.1c-3,3.4-4.5,8.9-4.5,16.4c0,7.6,1.5,13.1,4.5,16.5c3,3.4,7.3,5.1,12.9,5.1c5.6,0,9.8-1.7,12.8-5.1
				c3-3.4,4.5-8.9,4.5-16.5C244.8,251.8,243.3,246.3,240.4,242.9z"/>
			<path class="st2" d="M288.5,288.9c-4-1.6-7.4-3.8-10.2-6.7c-2.8-2.9-4.9-6.4-6.4-10.6c-1.5-4.1-2.2-8.7-2.2-13.8
				c0-5.1,0.7-9.7,2.2-13.8c1.5-4.1,3.6-7.6,6.4-10.6c2.8-2.9,6.2-5.2,10.2-6.7c4-1.6,8.5-2.3,13.6-2.3c5,0,9.5,0.8,13.5,2.3
				c4,1.6,7.4,3.8,10.2,6.7c2.8,2.9,5,6.4,6.4,10.6c1.5,4.1,2.2,8.7,2.2,13.8c0,5.1-0.7,9.7-2.2,13.8c-1.5,4.1-3.6,7.6-6.4,10.6
				c-2.8,2.9-6.2,5.2-10.2,6.7c-4,1.6-8.5,2.3-13.5,2.3C297,291.3,292.5,290.5,288.5,288.9z M314.9,241.5c-3-3.4-7.3-5.1-12.8-5.1
				c-5.6,0-9.9,1.7-12.9,5.1c-3,3.4-4.5,8.9-4.5,16.4c0,7.6,1.5,13.1,4.5,16.5c3,3.4,7.3,5.1,12.9,5.1c5.6,0,9.8-1.7,12.8-5.1
				c3-3.4,4.5-8.9,4.5-16.5C319.3,250.3,317.8,244.9,314.9,241.5z"/>
			<path class="st2" d="M360.5,231v5.4c4.8-6.9,10-10.4,15.7-10.5c5.7-0.1,9.7,1.2,12.2,3.9c2.4,2.7,3.4,5.3,3,8
				c-0.4,2.6-1.5,4.3-3.3,5c-1.8,0.7-3.3,0.2-4.7-1.4c-1.4-1.6-3.7-2.7-6.9-3.3c-3.2-0.6-6.7,0.2-10.5,2.6c-3.8,2.4-5.5,7-5.3,13.9
				v33.1c-0.1,3.3-2.1,5-6.2,5c-4.1,0-6.2-1.6-6.3-5V231c-0.1-3.1,2-4.6,6.1-4.6C358.4,226.4,360.5,227.9,360.5,231z"/>
		</g>
		<g>
			<path class="st3" d="M411,272.1c1.1,1.3,1.2,2.4,0.2,3.3c-1,0.8-2.1,0.9-3.2,0.1c-1.5-1.5-3.1-2.2-4.9-2.2s-3.3,0.7-4.5,2
				c-1.2,1.3-1.8,3-1.6,5.3c0.1,2.2,1,3.9,2.6,4.8s3.3,1.3,5,1.1c1.7-0.2,2.9-0.9,3.5-1.8c0.9-1.1,1.9-1.4,3-0.9
				c1.2,0.6,1.5,1.5,0.9,2.8c-0.9,1.4-2.3,2.5-4.2,3.3c-1.9,0.8-4.3,1-7.1,0.6c-2.8-0.4-5-1.5-6.4-3.3c-1.5-1.8-2.2-4.1-2.2-6.9
				c0-2.8,0.9-5.2,2.7-7.3c1.8-2.1,4.4-3.3,7.8-3.5S408.8,270.1,411,272.1z"/>
			<path class="st3" d="M434.6,276.6c0.6,5.2-0.1,8.9-1.9,10.9c-1.8,2-4.2,3-7.2,3c-3,0-5.4-1-7.2-3c-1.9-2-2.5-5.6-1.8-10.9
				c0.7-5.2,3.7-7.8,9.1-7.8C431.1,268.8,434,271.4,434.6,276.6z M419.8,279.4c0,5.1,1.9,7.7,5.8,7.7c3.9,0,5.8-2.6,5.7-7.7
				c-0.1-5.1-2.1-7.7-5.8-7.7C421.8,271.7,419.9,274.3,419.8,279.4z"/>
			<path class="st3" d="M442.7,290.3c-1,0-1.8-0.3-2.4-0.9c-0.7-0.6-1-1.3-1-2.2c0-0.8,0.3-1.5,1-2.1c0.7-0.6,1.5-0.9,2.4-0.9
				c0.9,0,1.7,0.3,2.4,0.9c0.7,0.6,1,1.3,1,2.1c0,0.9-0.3,1.6-1,2.2C444.4,290,443.6,290.3,442.7,290.3z"/>
			<path class="st3" d="M455.9,290.4c-1,0-1.8-0.3-2.4-0.9c-0.7-0.6-1-1.3-1-2.2c0-0.9,0.3-1.6,1-2.2c0.7-0.6,1.5-0.9,2.4-0.9
				c0.9,0,1.7,0.3,2.4,0.9s1.1,1.5,1.3,2.8c0.2,1.3-0.2,2.6-1,4.1c-0.9,1.4-2.1,2.5-3.6,3.4c-0.4,0.2-0.8,0-1.1-0.4
				c-0.3-0.4-0.2-0.8,0.2-1.1C455.7,292.7,456.3,291.5,455.9,290.4z"/>
		</g>
		<g>
			<g>
				<path class="st4" d="M218.5,167.5c2.4,0,3.7,1.1,3.8,3.6c0.1,2.4-1.2,3.7-3.8,3.8h-13.6v41c-0.1,1.9-1.5,2.8-4.1,2.8
					c-2.7,0-4.1-1-4.2-2.9V175h-13.5c-2.7,0-4-1.3-4-3.8c0-2.5,1.3-3.8,3.8-3.7H218.5z"/>
				<path class="st4" d="M238.6,219.4c-4.3-0.2-8.2-1.7-11.8-4.7c-3.6-3-5.4-7.2-5.6-12.8c-0.2-5.5,1.4-10.2,4.8-14
					c3.4-3.8,7.7-5.7,13-5.9c5.3-0.1,9.6,1.1,12.9,3.6c3.3,2.5,5.1,7.1,5.3,13.6c0,2.3-1.2,3.7-3.3,4.2h-24.6
					c0.2,2.6,1.5,4.8,3.7,6.4c2.2,1.6,4.9,2.4,8.2,2.4c3.2,0,6-1.2,8.1-3.5c1.3-1.8,3-2.1,5.1-1c2.1,1.1,2.3,3,0.5,5.7
					c-1.8,2-3.9,3.6-6.2,4.6C246.3,219.1,242.9,219.5,238.6,219.4z M235.3,189.3c-3.1,1-5.1,3.6-5.9,7.6h20c-0.4-4-2.1-6.5-5-7.6
					C241.5,188.2,238.5,188.2,235.3,189.3z"/>
				<path class="st4" d="M296.6,187.6c1.8,2.3,1.9,4.1,0.3,5.5c-1.6,1.4-3.3,1.5-5.2,0.2c-2.4-2.5-5-3.8-7.9-3.7
					c-2.8,0.1-5.2,1.2-7.2,3.3c-2,2.2-2.8,5.1-2.7,9s1.6,6.5,4.1,8.2c2.6,1.6,5.2,2.2,8,1.8c2.8-0.4,4.7-1.5,5.7-3.1
					c1.4-2,3-2.5,4.9-1.5s2.4,2.5,1.5,4.7c-1.4,2.4-3.6,4.2-6.7,5.6c-3.1,1.4-6.8,1.7-11.4,1c-4.5-0.7-8-2.6-10.3-5.7
					c-2.4-3-3.5-6.9-3.5-11.6c0-4.7,1.5-8.9,4.3-12.5c2.8-3.6,7-5.5,12.5-5.9C288.7,182.5,293.2,184.1,296.6,187.6z"/>
				<path class="st4" d="M316,170.1v17.6c3.5-4.4,8.5-5.9,15-4.8c6.4,1.2,9.9,5.2,10.2,12.1v21.2c0,2-1.4,2.9-4.1,2.9
					c-2.7,0-4-1-3.9-3v-17.8c0.3-4.9-1.6-7.7-5.7-8.4c-4.2-0.6-7.9,1.1-11.3,5.2v21.2c-0.1,1.7-1.5,2.6-4.1,2.6
					c-2.6,0-3.9-0.9-4-2.8v-46.1c0-1.9,1.3-2.9,4-2.9S316,168.2,316,170.1z"/>
			</g>
		</g>
	</g>
	<g>
		<g>
			<path class="st5" d="M98.4,366.9c0,0.2-0.1,0.4-0.3,0.6c-0.4-0.1-0.8-0.2-1.2-0.2c-0.9,0-1.6,0.2-2.2,0.6
				c-0.7,0.5-1.1,1.1-1.1,1.9c0,0.5,0.4,1.2,1.1,2c1.1,1.2,1.8,2,2.1,2.5c0.7,1.1,1.1,2.4,1.1,3.7c0,0.8-0.1,1.6-0.4,2.4
				c-0.3,0.9-0.8,1.6-1.3,2.1c-1.1,1-2.4,1.8-3.8,2.4c-1.6,0.7-3,1-4.3,1c-0.3,0-0.9-0.8-2-2.4c-1-1.6-1.5-2.6-1.5-3
				c0-0.1,0.1-0.2,0.2-0.2c1-0.2,2.1-0.4,3.1-0.6c1.3-0.4,1.9-1.1,1.9-2.1c0-0.7-0.4-1.4-1.1-2.3c-1.3-1.5-2-2.3-2.1-2.4
				c-0.7-1.1-1.1-2.2-1.1-3.4c0-2.3,1.1-4.2,3.3-5.8c2-1.4,4.1-2.1,6.4-2.1c0.2,0,0.8,0.8,1.7,2.4C97.9,365.7,98.4,366.7,98.4,366.9
				z"/>
			<path class="st5" d="M138.6,384.3c0,0.5-0.2,0.8-0.7,0.9c-0.4,0.1-1.5,0.1-3.3,0.1c-1.8,0-2.9,0-3.3-0.1s-0.7-0.5-0.7-1.1
				c0-0.7,0-1.7,0.1-3.1c0-1.4,0.1-2.4,0.1-3.1c0-2.6,0-4.5-0.1-5.6c-0.1-1.8-0.9-2.7-2.5-2.7c-0.7,0-1.4,0.3-2.1,0.9
				c-0.7,0.6-1.1,1.3-1.1,2c-0.1,0.6-0.1,2.5-0.1,5.5c0,0.7,0,1.8,0.1,3.2c0,1.4,0.1,2.5,0.1,3.2c0,0.5-0.2,0.7-0.6,0.7h-6.7
				c-0.4,0-0.6-0.3-0.6-0.9c0-0.7,0-1.8,0.1-3.2c0-1.4,0.1-2.5,0.1-3.2c0-0.6,0-1.4,0-2.5c0-1.1,0-2,0-2.5c0-2.2-0.8-3.2-2.4-3.2
				c-0.6,0-1.3,0.3-2.1,0.8c-0.8,0.6-1.2,1.1-1.2,1.8c0,1.4,0,3.4,0,6.1c0,2.7,0,4.8,0,6.1c0,0.4,0,0.6-0.1,0.7
				c-0.1,0.1-0.3,0.2-0.7,0.2c-0.7,0.1-1.7,0.1-3.1,0.1c-0.9,0-2,0-3.1-0.1c-0.4,0-0.6-0.1-0.6-0.2c-0.1-0.1-0.1-0.3-0.1-0.7
				c0-1.2,0-3,0-5.4c0-2.4,0-4.2,0-5.4c0-2.5-0.2-5.2-0.5-8.3c0-0.2,0-0.3,0-0.4c0-0.3,0.1-0.4,0.3-0.5c0.3-0.1,0.9-0.2,1.8-0.3
				c1.1-0.1,1.8-0.2,2-0.2c0.1,0,0.7-0.2,1.7-0.5c0.7-0.2,1.3-0.3,1.7-0.3c0.3,0,0.4,0.5,0.4,1.6c0,1,0.1,1.6,0.2,1.6
				c0.1-0.1,0.3-0.2,0.5-0.3c1.3-1.1,2.4-1.8,3.1-2.2c1.1-0.6,2.4-0.8,3.7-0.8c1.3,0,2.5,0.3,3.6,0.9c1.2,0.7,2,1.7,2.3,2.9
				c0.8-1.1,1.8-2,3.2-2.7c1.4-0.7,2.7-1.1,4-1.1c1.9,0,3.5,0.5,4.7,1.4c1.4,1,2.1,2.5,2.1,4.4c0,0.8,0,2-0.1,3.6s-0.1,2.8-0.1,3.6
				c0,0.9,0,2.4,0.1,4.3C138.6,382,138.6,383.4,138.6,384.3z"/>
			<path class="st5" d="M166.8,373.9c0,1.2,0.1,2.9,0.2,5.2c0.1,2.3,0.2,4,0.2,5.1c0,0.6-0.3,0.9-0.8,1c-1.8,0.1-3.9,0.2-6.2,0.2
				c-0.3,0-0.5-0.4-0.6-1.3c-0.1-0.9-0.2-1.3-0.3-1.3c-0.1,0.1-0.3,0.2-0.5,0.4c-1.6,1.7-3.4,2.5-5.3,2.5c-2.9,0-5.2-1.2-7.1-3.5
				c-1.8-2.2-2.7-4.8-2.7-7.8c0-3.5,0.9-6.3,2.7-8.4c1.9-2.2,4.5-3.3,7.8-3.3c2.3,0,4.1,0.8,5.4,2.5c0.1,0.1,0.1,0.1,0.2,0.1
				c0.1,0,0.3-0.4,0.5-1.1s0.4-1.1,0.6-1.1c0.5,0,1.6,0.2,3.1,0.5c1.4,0.3,2.5,0.6,3.1,0.8c0.2,0.1,0.3,0.2,0.3,0.4
				c0,0.1,0,0.2-0.1,0.5C167,368,166.8,370.9,166.8,373.9z M159.7,374c0-1.3-0.4-2.3-1.2-3.2c-0.8-0.8-1.8-1.3-3.1-1.3
				c-1.3,0-2.3,0.4-3.1,1.2c-0.8,0.8-1.2,1.9-1.2,3.2c0,1.2,0.4,2.3,1.2,3.1c0.8,0.9,1.8,1.3,3,1.3c1.2,0,2.3-0.4,3.1-1.3
				C159.3,376.4,159.7,375.3,159.7,374z"/>
			<path class="st5" d="M187.6,371.1c0,0.6-0.3,0.9-0.9,0.9c-0.3,0-0.7,0-1.2-0.1c-0.5,0-0.9-0.1-1.2-0.1c-1.2,0-2,0.2-2.5,0.6
				c-0.4,0.4-0.7,1.2-0.7,2.4c0,0.6,0,1.6,0,2.9c0,1.3,0,2.3,0,2.9c0,0.4,0,1.1,0.1,2c0.1,0.9,0.1,1.5,0.1,1.9
				c0,0.4-0.2,0.6-0.7,0.6c-0.7,0.1-1.8,0.1-3.2,0.1c-1.4,0-2.5,0-3.3-0.1c-0.5-0.1-0.7-0.3-0.7-0.7c0-1.2,0-3,0-5.4s0-4.2,0-5.4
				c0-3.5-0.3-6.4-0.9-8.7c0-0.1,0-0.2,0-0.3c0-0.2,0.1-0.4,0.3-0.5c0.8-0.1,2-0.3,3.5-0.5c2.3-0.5,3.5-0.7,3.6-0.7
				c0.3,0,0.4,0.5,0.5,1.4c0.1,0.9,0.2,1.4,0.4,1.4c-0.2,0,0.4-0.4,1.8-1.2c1.4-0.8,2.8-1.2,4.1-1.2c0.8,0,1.2,0.2,1.2,0.5
				c0,0.4,0,1.1-0.1,1.9c-0.1,0.9-0.1,1.5-0.2,1.8c0,0.4,0,1,0,1.7C187.6,370.3,187.6,370.8,187.6,371.1z"/>
			<path class="st5" d="M206.8,378.6c0,0.5-0.1,1.1-0.2,2.1c-0.1,0.9-0.2,1.6-0.2,2s0,0.7-0.1,0.8c-0.1,0.1-0.3,0.3-0.7,0.5
				c-1.9,1.1-4,1.6-6.3,1.6c-4.2,0-6.3-1.7-6.3-5c0-1,0-2.5,0.1-4.5s0.1-3.5,0.1-4.5c0-0.7-0.4-1-1.1-1c-0.1,0-0.2,0-0.3,0
				c-0.1,0-0.2,0-0.3,0c-0.6,0-0.8-0.2-0.8-0.6c0-0.2,0-0.6,0.1-1.1s0.1-0.9,0.1-1.1c0-0.3,0-0.8-0.1-1.4c0-0.6-0.1-1.1-0.1-1.4
				c0-0.3,0.5-0.5,1.4-0.5c0.5,0,0.8-0.2,0.9-0.5c0.1-0.6,0.1-1.5,0.1-2.7c-0.1-1.9-0.1-2.9-0.1-2.8c0-1.7,0.2-2.6,0.5-2.6
				c0.4,0,1,0.1,1.7,0.3c0.8,0.2,1.4,0.3,1.7,0.3c0.7,0.1,1.9,0.2,3.4,0.4c0.4,0,0.5,0.2,0.5,0.4c0,0.6,0,1.5-0.1,2.7
				c-0.1,1.2-0.1,2.1-0.1,2.8c0,0.7,0.2,1.1,0.6,1.1c0.5,0,1.3,0,2.3-0.1s1.8-0.1,2.4-0.1c0.3,0,0.5,0.1,0.5,0.3
				c0,0.3,0,0.9-0.1,1.6c-0.1,0.7-0.1,1.2-0.1,1.6c0,0.4,0,0.9,0,1.6c0,0.7,0,1.2,0,1.6c0,0.3-0.2,0.5-0.6,0.5c-0.3,0-0.8,0-1.5,0
				s-1.2,0-1.5,0h-1.6c-0.2,0-0.3,0.3-0.3,1c0,0.4,0,0.9,0,1.6c0,0.7,0,1.3,0,1.6c0,1.3,0.1,2.1,0.4,2.6c0.4,0.6,1.2,1,2.3,1
				c0.4,0,0.9-0.1,1.6-0.3c0.7-0.2,1.2-0.3,1.4-0.3C206.7,378.1,206.8,378.2,206.8,378.6z"/>
			<path class="st5" d="M237.1,366.9c0,0.2-0.1,0.4-0.3,0.6c-0.4-0.1-0.8-0.2-1.2-0.2c-0.9,0-1.6,0.2-2.2,0.6
				c-0.7,0.5-1.1,1.1-1.1,1.9c0,0.5,0.4,1.2,1.1,2c1.1,1.2,1.8,2,2.1,2.5c0.7,1.1,1.1,2.4,1.1,3.7c0,0.8-0.1,1.6-0.4,2.4
				c-0.3,0.9-0.8,1.6-1.3,2.1c-1.1,1-2.4,1.8-3.8,2.4c-1.6,0.7-3,1-4.3,1c-0.3,0-0.9-0.8-2-2.4c-1-1.6-1.5-2.6-1.5-3
				c0-0.1,0.1-0.2,0.2-0.2c1-0.2,2.1-0.4,3.1-0.6c1.3-0.4,1.9-1.1,1.9-2.1c0-0.7-0.4-1.4-1.1-2.3c-1.3-1.5-2-2.3-2.1-2.4
				c-0.7-1.1-1.1-2.2-1.1-3.4c0-2.3,1.1-4.2,3.3-5.8c2-1.4,4.1-2.1,6.4-2.1c0.2,0,0.8,0.8,1.7,2.4
				C236.6,365.7,237.1,366.7,237.1,366.9z"/>
			<path class="st5" d="M263.3,374.1c0,3.4-1,6.2-3.1,8.3s-4.7,3.2-8.1,3.2c-3.2,0-5.9-1.1-8-3.2c-2.1-2.1-3.1-4.8-3.1-8.1
				c0-3.5,1-6.3,3-8.5c2-2.2,4.7-3.3,8.1-3.3c3.3,0,6,1.1,8,3.2C262.3,367.9,263.3,370.7,263.3,374.1z M256.1,374.1
				c0-1.2-0.4-2.2-1.1-3.1c-0.7-0.9-1.6-1.4-2.8-1.4c-1.2,0-2.1,0.5-2.9,1.4c-0.7,0.9-1.1,1.9-1.1,3.1c0,1.2,0.4,2.3,1.1,3.1
				c0.7,0.9,1.7,1.4,2.9,1.4c1.1,0,2.1-0.5,2.8-1.4C255.8,376.3,256.1,375.3,256.1,374.1z"/>
			<path class="st5" d="M275.9,371.6c0,4.1,0,7.3,0,9.5c0,0.3,0,0.9,0.1,1.8c0,0.8,0.1,1.4,0.1,1.8c0,0.3-0.2,0.5-0.5,0.6
				c-0.7,0.1-1.8,0.2-3.6,0.2c-1.8,0-2.9-0.1-3.4-0.2c-0.3-0.1-0.5-0.3-0.5-0.6c0,0,0-0.4,0-1c0-1.3,0-3.3,0-6c0-2.7,0-4.7,0-6
				c0-6.3,0-9.2,0-8.6c0-3.3-0.2-6.2-0.5-8.6c0-0.2,0-0.3,0-0.4c0-0.3,0.2-0.5,0.6-0.5h7.8c0.4,0,0.5,0.2,0.5,0.5l0,0.4
				C276.1,360.9,275.9,366.6,275.9,371.6z"/>
			<path class="st5" d="M304.5,364.7c0,1.1-0.1,2.8-0.2,5c-0.1,2.2-0.2,3.9-0.2,5c0,1.1,0,2.7,0.1,4.9c0.1,2.2,0.1,3.8,0.1,4.9
				c0,0.4-0.2,0.7-0.5,0.8c-0.6,0.2-1.7,0.2-3.5,0.2c-1.6,0-2.7,0-3.3-0.1c-0.3,0-0.5-0.2-0.5-0.5c0-0.5-0.1-0.9-0.1-1.4
				c-0.1-0.7-0.2-1-0.3-1c0.2,0-0.5,0.5-2.2,1.5c-1.7,1-3.2,1.5-4.6,1.5c-3.9,0-6.2-1.8-6.9-5.4c-0.3-1.7-0.5-4.1-0.5-7.3
				c0-3.4,0.3-6.1,0.8-8.1c0.2-0.6,0.5-0.9,0.9-0.9c0.7,0,1.7,0,3.1,0c1.4,0,2.4,0,3.1,0c0.5,0,0.7,0.2,0.7,0.6c0,0.1,0,0.3,0,0.5
				c-0.3,2-0.5,4.1-0.5,6.2c0,2.6,0.1,4.4,0.2,5.4c0.3,1.7,1.2,2.5,2.9,2.5c0.6,0,1.3-0.3,2.1-0.9c0.8-0.6,1.1-1.2,1.2-1.8
				c0-0.6,0-4.3,0-11.3c0-0.5,0-0.8,0.1-0.9c0.1-0.1,0.4-0.2,0.8-0.2c0.7,0,1.8,0,3.2,0c1.4,0,2.5,0,3.2,0c0.4,0,0.7,0.1,0.8,0.3
				C304.5,364.3,304.5,364.4,304.5,364.7z"/>
			<path class="st5" d="M324.8,378.6c0,0.5-0.1,1.1-0.2,2.1c-0.1,0.9-0.2,1.6-0.2,2s0,0.7-0.1,0.8c-0.1,0.1-0.3,0.3-0.7,0.5
				c-1.9,1.1-4,1.6-6.3,1.6c-4.2,0-6.3-1.7-6.3-5c0-1,0-2.5,0.1-4.5c0.1-2,0.1-3.5,0.1-4.5c0-0.7-0.4-1-1.1-1c-0.1,0-0.2,0-0.3,0
				c-0.1,0-0.2,0-0.3,0c-0.6,0-0.8-0.2-0.8-0.6c0-0.2,0-0.6,0.1-1.1s0.1-0.9,0.1-1.1c0-0.3,0-0.8-0.1-1.4c0-0.6-0.1-1.1-0.1-1.4
				c0-0.3,0.5-0.5,1.4-0.5c0.5,0,0.8-0.2,0.9-0.5c0.1-0.6,0.1-1.5,0.1-2.7c-0.1-1.9-0.1-2.9-0.1-2.8c0-1.7,0.2-2.6,0.5-2.6
				c0.4,0,1,0.1,1.7,0.3c0.8,0.2,1.4,0.3,1.7,0.3c0.7,0.1,1.9,0.2,3.4,0.4c0.4,0,0.5,0.2,0.5,0.4c0,0.6,0,1.5-0.1,2.7
				c-0.1,1.2-0.1,2.1-0.1,2.8c0,0.7,0.2,1.1,0.6,1.1c0.5,0,1.3,0,2.3-0.1c1,0,1.8-0.1,2.4-0.1c0.3,0,0.5,0.1,0.5,0.3
				c0,0.3,0,0.9-0.1,1.6c-0.1,0.7-0.1,1.2-0.1,1.6c0,0.4,0,0.9,0,1.6c0,0.7,0,1.2,0,1.6c0,0.3-0.2,0.5-0.6,0.5c-0.3,0-0.8,0-1.5,0
				s-1.2,0-1.5,0h-1.6c-0.2,0-0.3,0.3-0.3,1c0,0.4,0,0.9,0,1.6c0,0.7,0,1.3,0,1.6c0,1.3,0.1,2.1,0.4,2.6c0.4,0.6,1.2,1,2.3,1
				c0.4,0,0.9-0.1,1.6-0.3c0.7-0.2,1.2-0.3,1.4-0.3C324.6,378.1,324.8,378.2,324.8,378.6z"/>
			<path class="st5" d="M337.1,374.8c0,1.1,0,2.7,0.1,4.9c0,2.2,0.1,3.8,0.1,4.9c0,0.3-0.2,0.5-0.5,0.6c-0.5,0.1-1.6,0.1-3.4,0.1
				c-1.8,0-2.9,0-3.4-0.1c-0.3-0.1-0.5-0.2-0.6-0.3c0-0.1,0-0.3,0-0.7c0-1,0-2.6,0.1-4.7s0.1-3.7,0.1-4.7c0-4.3-0.2-7.7-0.5-10.2
				c0-0.2,0-0.4,0-0.5c0-0.3,0.2-0.5,0.6-0.5c0.4,0,1,0,1.9,0.1c0.8,0.1,1.5,0.1,1.9,0.1s1.1,0,1.9-0.1c0.8-0.1,1.5-0.1,1.9-0.1
				c0.4,0,0.5,0.2,0.5,0.5c0,0.1,0,0.2,0,0.4C337.3,367.6,337.1,371,337.1,374.8z M337.7,358.1c0,2.6-1.4,3.9-4.3,3.9
				c-1.2,0-2.2-0.3-3.1-1c-0.9-0.7-1.3-1.7-1.3-2.9c0-1.2,0.5-2.1,1.4-2.9c0.8-0.7,1.8-1,3-1c1.1,0,2.1,0.4,3,1.1
				C337.2,356,337.7,356.9,337.7,358.1z"/>
			<path class="st5" d="M364.4,374.1c0,3.4-1,6.2-3.1,8.3s-4.7,3.2-8.1,3.2c-3.2,0-5.9-1.1-8-3.2c-2.1-2.1-3.1-4.8-3.1-8.1
				c0-3.5,1-6.3,3-8.5c2-2.2,4.7-3.3,8.1-3.3c3.3,0,6,1.1,8,3.2C363.4,367.9,364.4,370.7,364.4,374.1z M357.2,374.1
				c0-1.2-0.4-2.2-1.1-3.1c-0.7-0.9-1.6-1.4-2.8-1.4c-1.2,0-2.1,0.5-2.9,1.4c-0.7,0.9-1.1,1.9-1.1,3.1c0,1.2,0.4,2.3,1.1,3.1
				c0.7,0.9,1.7,1.4,2.9,1.4c1.1,0,2.1-0.5,2.8-1.4C356.9,376.3,357.2,375.3,357.2,374.1z"/>
			<path class="st5" d="M390.9,384.5c0,0.4-0.2,0.6-0.6,0.7c-0.4,0.1-1.5,0.1-3.2,0.1c-1.8,0-3,0-3.4-0.1s-0.7-0.4-0.7-0.9
				c0-0.7,0-1.8,0.1-3.2c0-1.4,0.1-2.5,0.1-3.2c0-0.6,0-1.4,0-2.5s0-1.9,0-2.5c0-2.1-0.9-3.1-2.6-3.1c-0.6,0-1.2,0.3-2,0.8
				c-0.8,0.6-1.2,1.1-1.2,1.7v12.2c0,0.5-0.2,0.8-0.7,0.8c-0.5,0.1-1.6,0.1-3.1,0.1c-1.7,0-2.8,0-3.3-0.1c-0.5-0.1-0.7-0.3-0.7-0.7
				c0-1.2,0-2.9,0-5.3s0-4.1,0-5.3c0-3.7-0.3-6.7-0.9-8.8c0-0.1,0-0.2,0-0.3c0-0.2,0.1-0.4,0.3-0.5c0.9-0.1,2.2-0.3,3.7-0.5
				c2.3-0.5,3.6-0.7,3.9-0.7c0.2,0,0.3,0.5,0.4,1.5c0.1,1,0.2,1.5,0.4,1.5c-0.2,0,0.6-0.5,2.4-1.6c1.7-1,3.3-1.6,4.6-1.6
				c1.9,0,3.4,0.5,4.7,1.4c1.4,1,2.1,2.5,2.1,4.3v7.2c0,1,0,2.4,0,4.4C390.9,382.1,390.9,383.5,390.9,384.5z"/>
			<path class="st5" d="M409.3,366.9c0,0.2-0.1,0.4-0.3,0.6c-0.4-0.1-0.8-0.2-1.2-0.2c-0.9,0-1.6,0.2-2.2,0.6
				c-0.7,0.5-1.1,1.1-1.1,1.9c0,0.5,0.4,1.2,1.1,2c1.1,1.2,1.8,2,2.1,2.5c0.7,1.1,1.1,2.4,1.1,3.7c0,0.8-0.1,1.6-0.4,2.4
				c-0.3,0.9-0.8,1.6-1.3,2.1c-1.1,1-2.4,1.8-3.8,2.4c-1.6,0.7-3,1-4.3,1c-0.3,0-0.9-0.8-2-2.4c-1-1.6-1.5-2.6-1.5-3
				c0-0.1,0.1-0.2,0.2-0.2c1-0.2,2.1-0.4,3.1-0.6c1.3-0.4,1.9-1.1,1.9-2.1c0-0.7-0.4-1.4-1.1-2.3c-1.3-1.5-2-2.3-2.1-2.4
				c-0.7-1.1-1.1-2.2-1.1-3.4c0-2.3,1.1-4.2,3.3-5.8c2-1.4,4.1-2.1,6.4-2.1c0.2,0,0.8,0.8,1.7,2.4
				C408.9,365.7,409.3,366.7,409.3,366.9z"/>
		</g>
	</g>
</g>
<g>
</g>
<g>
</g>
<g>
</g>
<g>
</g>
<g>
</g>
<g>
</g>
</svg>
