<?xml version="1.0" encoding="utf-8"?>
<!-- Generator: Adobe Illustrator 24.1.0, SVG Export Plug-In . SVG Version: 6.00 Build 0)  -->
<svg version="1.1" id="Capa_1" xmlns="http://www.w3.org/2000/svg" xmlns:xlink="http://www.w3.org/1999/xlink" x="0px" y="0px"
	 viewBox="0 0 512 512" style="enable-background:new 0 0 512 512;" xml:space="preserve">
<style type="text/css">
	.st0{fill:#FFFFFF;}
</style>
<g>
	<g>
		<path class="st0" d="M276,492V20c0-11-9-20-20-20c-11,0-20,9-20,20v472c0,11,9,20,20,20S276,503,276,492z"/>
	</g>
</g>
<g>
	<g>
		<path class="st0" d="M436,492V20c0-11-9-20-20-20s-20,9-20,20v472c0,11,9,20,20,20S436,503,436,492z"/>
	</g>
</g>
<g>
	<g>
		<path class="st0" d="M116,492V20c0-11-9-20-20-20S76,9,76,20v472c0,11,9,20,20,20S116,503,116,492z"/>
	</g>
</g>
</svg>
