<?xml version="1.0" encoding="utf-8"?>
<!-- Generator: Adobe Illustrator 24.1.0, SVG Export Plug-In . SVG Version: 6.00 Build 0)  -->
<svg version="1.1" id="Layer_1" xmlns="http://www.w3.org/2000/svg" xmlns:xlink="http://www.w3.org/1999/xlink" x="0px" y="0px"
	 viewBox="0 0 512 512" style="enable-background:new 0 0 512 512;" xml:space="preserve">
<style type="text/css">
	.st0{fill:#1EA1DB;}
</style>
<g>
	<path d="M360,8H152c-17.7,0-32,14.3-32,32v432c0,17.7,14.3,32,32,32h208c17.7,0,32-14.3,32-32V40C392,22.3,377.7,8,360,8z
		 M293.4,24l-4.5,16h-66.7l-4-16H293.4z M376,472c0,8.8-7.2,16-16,16H152c-8.8,0-16-7.2-16-16V40c0-8.8,7.2-16,16-16h49.8l6.5,25.9
		c0.9,3.6,4.1,6.1,7.8,6.1h79c3.6,0,6.7-2.4,7.7-5.8l7.4-26.2H360c8.8,0,16,7.2,16,16V472z"/>
	<path class="st0" d="M216,456h-56c-4.4,0-8,3.6-8,8s3.6,8,8,8h56c4.4,0,8-3.6,8-8S220.4,456,216,456z"/>
	<path class="st0" d="M248,456h-8c-4.4,0-8,3.6-8,8s3.6,8,8,8h8c4.4,0,8-3.6,8-8S252.4,456,248,456z"/>
	<path class="st0" d="M284.1,209.1c-3.8-2.3-8.7-1-11,2.7c0,0,0,0,0,0l-48,80c-2.3,3.8-1,8.7,2.7,11c3.8,2.3,8.7,1,11-2.7l0,0l48-80
		C289.1,216.3,287.9,211.4,284.1,209.1C284.1,209.1,284.1,209.1,284.1,209.1z"/>
	<path class="st0" d="M310.2,211c-2.8-3.5-7.8-4-11.2-1.2c-3.5,2.8-4,7.8-1.2,11.2l28,35l-28,35c-2.8,3.5-2.2,8.5,1.2,11.2
		c3.5,2.8,8.5,2.2,11.2-1.2l32-40c2.3-2.9,2.3-7.1,0-10L310.2,211z"/>
	<path class="st0" d="M201.8,301c2.8,3.5,7.8,4,11.2,1.2c3.5-2.8,4-7.8,1.2-11.2l-28-35l28-35c2.8-3.5,2.2-8.5-1.2-11.2
		c-3.5-2.8-8.5-2.2-11.2,1.2l-32,40c-2.3,2.9-2.3,7.1,0,10L201.8,301z"/>
</g>
</svg>
