<?xml version="1.0" encoding="utf-8"?>
<!-- Generator: Adobe Illustrator 24.1.0, SVG Export Plug-In . SVG Version: 6.00 Build 0)  -->
<svg version="1.1" xmlns="http://www.w3.org/2000/svg" xmlns:xlink="http://www.w3.org/1999/xlink" x="0px" y="0px"
	 viewBox="0 0 512 512" style="enable-background:new 0 0 512 512;" xml:space="preserve">
<style type="text/css">
	.st0{fill:#1EA1DB;}
	.st1{fill:#FFFFFF;}
</style>
<g id="Layer_1">
	<g>
		<path d="M314.6,356h29.6v-44.1h-29.6V356z M15,359.4c0,4.1-3.3,7.5-7.5,7.5S0,363.6,0,359.4v-41.7C0,305,5.2,293.4,13.6,285
			c8.4-8.4,20-13.6,32.7-13.6h55.9v-95.8c0-4.1,3.3-7.5,7.5-7.5c4.1,0,7.5,3.3,7.5,7.5v65.5H497v-65.5c0-4.1,3.4-7.5,7.5-7.5
			s7.5,3.3,7.5,7.5v73v25.2c0,10.5-4.3,20-11.2,26.9c-6.9,6.9-16.4,11.2-26.9,11.2H359.2V356h22c6.6,0,12.5,2.7,16.8,7
			s7,10.3,7,16.8c0,6.5-2.7,12.5-7,16.8s-10.3,7-16.8,7h-66.7v31.5c0,12.7-5.2,24.3-13.6,32.7c-8.4,8.4-20,13.6-32.7,13.6h-222
			c-12.7,0-24.3-5.2-32.7-13.6C5.2,459.4,0,447.8,0,435.1v-41.7c0-4.1,3.4-7.5,7.5-7.5c4.1,0,7.5,3.4,7.5,7.5v41.7
			c0,8.6,3.5,16.4,9.2,22.1c5.7,5.7,13.5,9.2,22.1,9.2h222c8.6,0,16.4-3.5,22.1-9.2c5.7-5.7,9.2-13.5,9.2-22.1
			c0-39.1,0-78.3,0-117.4c0-8.3-3.3-16.2-9.2-22.1c-5.7-5.7-13.5-9.2-22.1-9.2h-222c-8.6,0-16.4,3.5-22.1,9.2
			c-5.7,5.7-9.2,13.5-9.2,22.1L15,359.4z M117.2,271.4h151.1c12.8,0,24.4,5.2,32.7,13.6c3.5,3.5,6.4,7.5,8.6,11.8H474
			c6.3,0,12.1-2.6,16.3-6.8c4.2-4.2,6.8-10,6.8-16.3v-17.7H117.2L117.2,271.4z M387.5,373.5c-1.6-1.6-3.8-2.6-6.2-2.6h-66.7v17.6
			h66.7c2.4,0,4.6-1,6.2-2.6c1.6-1.6,2.6-3.8,2.6-6.2C390.1,377.3,389.1,375.1,387.5,373.5L387.5,373.5z M117.2,141.6
			c0,4.1-3.4,7.5-7.5,7.5s-7.5-3.3-7.5-7.5v-73c0-10.5,4.3-20,11.2-26.9c6.9-6.9,16.4-11.2,26.9-11.2H474c10.5,0,20,4.3,26.9,11.2
			c6.9,6.9,11.2,16.4,11.2,26.9v73c0,4.1-3.3,7.5-7.5,7.5s-7.5-3.3-7.5-7.5v-73c0-6.3-2.6-12.1-6.8-16.3c-4.2-4.2-9.9-6.8-16.3-6.8
			H140.3c-6.3,0-12.1,2.6-16.3,6.8c-4.2,4.2-6.8,10-6.8,16.3L117.2,141.6L117.2,141.6z"/>
	</g>
</g>
<g id="Layer_2">
	<path class="st0" d="M436.3,81.3c9.5,0,18.1,3.9,24.3,10.1c6.2,6.2,10.1,14.8,10.1,24.3c0,9.5-3.9,18.1-10.1,24.3
		c-6.2,6.2-14.8,10.1-24.3,10.1s-18.1-3.9-24.3-10.1c-4.3-4.3-7.4-9.7-9-15.7c-6.5,2.2-12.8,7.8-18.4,16
		c-8.6,12.4-15.4,30.2-19.5,51.5c-0.5,2.9-2.8,5.4-6,6c-4.1,0.8-8-1.9-8.8-6c-4.1-21.3-11-39.2-19.5-51.6
		c-7.5-10.8-16-17.1-24.8-17.1s-17.3,6.3-24.8,17.1c-8.6,12.4-15.4,30.2-19.5,51.5c-0.5,2.9-2.8,5.4-6,6c-4.1,0.8-8-1.9-8.8-6
		c-4.1-21.3-11-39.2-19.5-51.6c-7.5-10.8-16-17.1-24.8-17.1c-8.8,0-17.3,6.3-24.8,17.1c-8.6,12.4-15.4,30.3-19.5,51.6
		c-0.8,4.1-4.7,6.7-8.8,6c-4.1-0.8-6.7-4.7-6-8.8c4.5-23.3,12.2-43.2,21.9-57.3c10.3-14.9,23-23.6,37.1-23.6s26.8,8.7,37.1,23.6
		c5.6,8.1,10.5,18.2,14.6,29.7c4.1-11.5,9-21.6,14.6-29.7c10.3-14.9,23-23.6,37.1-23.6s26.8,8.7,37.1,23.6
		c5.6,8.1,10.5,18.2,14.6,29.7c4.1-11.5,9-21.6,14.6-29.7c8.6-12.4,18.9-20.5,30.3-22.8c1.4-6.8,4.7-12.8,9.4-17.5
		C418.3,85.2,426.8,81.3,436.3,81.3L436.3,81.3z"/>
	<path class="st1" d="M452.2,101.8c-3.5-3.5-8.3-5.7-13.7-5.7c-5.3,0-10.2,2.2-13.7,5.7c-3.5,3.5-5.6,8.3-5.6,13.7
		c0,5.3,2.2,10.2,5.6,13.7c3.5,3.5,8.4,5.6,13.7,5.6c5.4,0,10.2-2.2,13.7-5.6c3.5-3.5,5.7-8.4,5.7-13.7
		C457.9,110.2,455.7,105.3,452.2,101.8z"/>
	<path class="st0" d="M176.6,318.5c0-4.2,3.4-7.5,7.5-7.5c4.1,0,7.5,3.3,7.5,7.5v104.9c0,4.1-3.4,7.5-7.5,7.5
		c-4.1,0-7.5-3.4-7.5-7.5V318.5z"/>
	<path class="st0" d="M135.5,321.3c3.4,2.3,4.3,6.9,2,10.4c-2.3,3.4-7,4.3-10.4,2c-3.7-2.5-7.7-4.5-12-5.8
		c-4.1-1.2-8.5-1.9-13.2-1.9c-12.4,0-23.6,5-31.8,13.2c-8.1,8.1-13.2,19.4-13.2,31.8s5,23.7,13.2,31.8c8.2,8.1,19.4,13.2,31.8,13.2
		c11.6,0,20.7-4.5,27-11.7c5.7-6.6,9.2-15.6,10.4-25.7h-23.5c-4.2,0-7.5-3.3-7.5-7.5c0-4.1,3.3-7.5,7.5-7.5h31.4
		c4.1,0,7.5,3.3,7.5,7.5c0,16.8-5,32.1-14.5,43c-9.1,10.5-22,17-38.3,17c-16.6,0-31.5-6.7-42.4-17.6C48.8,402.5,42,387.5,42,370.9
		c0-16.6,6.7-31.6,17.5-42.4C70.5,317.7,85.4,311,102,311c6,0,11.9,0.9,17.5,2.6C125.3,315.4,130.7,318,135.5,321.3L135.5,321.3z"/>
	<path class="st0" d="M263.2,311c4.1,0,7.5,3.3,7.5,7.5c0,4.1-3.4,7.5-7.5,7.5h-34.7v36.1h31.4c4.1,0,7.5,3.4,7.5,7.5
		c0,4.1-3.4,7.5-7.5,7.5h-31.4v45.6c0,4.1-3.4,7.5-7.5,7.5c-4.1,0-7.5-3.4-7.5-7.5V318.5c0-4.2,3.4-7.5,7.5-7.5H263.2z"/>
</g>
</svg>
