<?xml version="1.0" encoding="utf-8"?>
<!-- Generator: Adobe Illustrator 24.1.0, SVG Export Plug-In . SVG Version: 6.00 Build 0)  -->
<svg version="1.1" id="Capa_1" xmlns="http://www.w3.org/2000/svg" xmlns:xlink="http://www.w3.org/1999/xlink" x="0px" y="0px"
	 viewBox="0 0 512 512" style="enable-background:new 0 0 512 512;" xml:space="preserve">
<style type="text/css">
	.st0{fill:#1EA1DB;}
</style>
<g>
	<path d="M484.5,65.1H349.6c-0.1,0-0.3,0-0.4,0c-4.9-4.6-10.3-9-15.9-12.9c-3.4-2.4-8.1-1.5-10.4,1.9c-2.4,3.4-1.5,8.1,1.9,10.4
		c33.1,22.9,52.9,60.6,52.9,100.8c0,67.6-55,122.5-122.5,122.5c-67.6,0-122.5-55-122.5-122.5c0-67.6,55-122.5,122.5-122.5
		c13.4,0,26.6,2.2,39.2,6.4c3.9,1.3,8.2-0.8,9.5-4.7c1.3-3.9-0.8-8.2-4.7-9.5c-14.1-4.8-28.9-7.2-44-7.2
		c-75.8,0-137.5,61.7-137.5,137.5s61.7,137.5,137.5,137.5s137.5-61.7,137.5-137.5c0-31.3-10.7-61.3-29.7-85.3h121.6
		c6.9,0,12.5,5.6,12.5,12.5v236.1h-59.3c-4.1,0-7.5,3.4-7.5,7.5s3.4,7.5,7.5,7.5H497V383c0,6.9-5.6,12.5-12.5,12.5h-457
		c-6.9,0-12.5-5.6-12.5-12.5v-39.4h384.9c4.1,0,7.5-3.4,7.5-7.5s-3.4-7.5-7.5-7.5H15V92.6c0-6.9,5.6-12.5,12.5-12.5h89.4
		c4.1,0,7.5-3.4,7.5-7.5s-3.4-7.5-7.5-7.5H27.5C12.3,65.1,0,77.4,0,92.6V383c0,15.2,12.3,27.5,27.5,27.5h164.4v58.6h-22.6
		c-4.1,0-7.5,3.4-7.5,7.5s3.4,7.5,7.5,7.5h171.7c4.1,0,7.5-3.4,7.5-7.5s-3.4-7.5-7.5-7.5h-22.6v-58.6h166.2
		c15.2,0,27.5-12.3,27.5-27.5V92.6C512,77.4,499.7,65.1,484.5,65.1z M303.3,469.1h-96.4v-58.6h96.4V469.1z"/>
	<path class="st0" d="M201.6,105.5c-1.6-8.5-9-14.6-17.7-14.6h-8c-4.1,0-7.5,3.4-7.5,7.5s3.4,7.5,7.5,7.5h8c1.4,0,2.6,1,2.9,2.4
		l22.2,117.6c0.7,3.5,3.8,6.1,7.4,6.1h5.1c-2.2,2.5-3.6,5.7-3.6,9.3c0,7.7,6.3,14,14,14s14-6.3,14-14c0-3.6-1.4-6.8-3.6-9.3h30.9
		c-2.2,2.5-3.6,5.7-3.6,9.3c0,7.7,6.3,14,14,14s14-6.3,14-14c0-3.6-1.4-6.8-3.6-9.3h6.7c4.1,0,7.5-3.4,7.5-7.5s-3.4-7.5-7.5-7.5
		h-78.1l-3.1-16.2h83.8c3.6,0,6.7-2.6,7.4-6.1l13.3-70.2c0,0,0-0.1,0-0.1c0.4-2.6-0.3-5.3-2-7.3s-4.2-3.2-6.9-3.2H203.2L201.6,105.5
		z M212.8,164.7h20.5l1.5,21h-18L212.8,164.7z M266.4,164.7l-1.5,21h-15l-1.5-21H266.4z M247.2,149.7l-1.5-21H269l-1.5,21H247.2z
		 M279.9,185.7l1.5-21h19.8l-4,21H279.9z M304.1,149.7h-21.5l1.5-21h24L304.1,149.7z M230.7,128.7l1.5,21H210l-4-21H230.7z"/>
	<path class="st0" d="M48.9,275.1h44.4c4.1,0,7.5-3.4,7.5-7.5s-3.4-7.5-7.5-7.5H48.9c-4.1,0-7.5,3.4-7.5,7.5S44.7,275.1,48.9,275.1z
		"/>
	<path class="st0" d="M48.9,308.9h82.8c4.1,0,7.5-3.4,7.5-7.5s-3.4-7.5-7.5-7.5H48.9c-4.1,0-7.5,3.4-7.5,7.5S44.7,308.9,48.9,308.9z
		"/>
	<path class="st0" d="M444.9,108.4c-4.1,0-7.5,3.4-7.5,7.5v18.8h-18.8c-4.1,0-7.5,3.4-7.5,7.5s3.4,7.5,7.5,7.5h18.8v18.8
		c0,4.1,3.4,7.5,7.5,7.5s7.5-3.4,7.5-7.5v-18.8h18.8c4.1,0,7.5-3.4,7.5-7.5s-3.4-7.5-7.5-7.5h-18.8v-18.8
		C452.4,111.7,449.1,108.4,444.9,108.4z"/>
</g>
</svg>
