<?xml version="1.0" encoding="utf-8"?>
<!-- Generator: Adobe Illustrator 24.1.0, SVG Export Plug-In . SVG Version: 6.00 Build 0)  -->
<svg version="1.1" xmlns="http://www.w3.org/2000/svg" xmlns:xlink="http://www.w3.org/1999/xlink" x="0px" y="0px"
	 viewBox="0 0 512 512" style="enable-background:new 0 0 512 512;" xml:space="preserve">
<style type="text/css">
	.st0{opacity:0.53;fill:none;stroke:#FFFFFF;stroke-width:24;stroke-miterlimit:10;}
	.st1{fill:#F7F7F7;}
</style>
<g id="Layer_2">
	<circle class="st0" cx="293.8" cy="262" r="161.2"/>
</g>
<g id="Layer">
	<path class="st1" d="M264.2,197.7c-4.2-4-10.8-3.8-14.7,0.4c-4,4.2-3.8,10.8,0.4,14.7l45.9,38.8H60.6c-5.8,0-10.4,4.7-10.4,10.4
		s4.7,10.4,10.4,10.4h234.9l-46.6,36.8c-4.2,4-4.3,10.6-0.4,14.7c2,2.1,4.8,3.2,7.5,3.2c2.6,0,5.2-1,7.2-2.9l57.9-47.6
		c3.9-3.9,6.1-9.2,6.1-14.7c0-5.6-2.2-10.8-6.3-14.9L264.2,197.7z"/>
</g>
</svg>
